<svg xmlns="http://www.w3.org/2000/svg" viewBox="0 0 800 520">
  <defs>
    <linearGradient id="massageBg" x1="0" y1="0" x2="1" y2="1">
      <stop offset="0%" stop-color="#1f1f20"/>
      <stop offset="100%" stop-color="#2c2f2c"/>
    </linearGradient>
    <linearGradient id="massageHighlight" x1="0" y1="0" x2="1" y2="1">
      <stop offset="0%" stop-color="#ffd166"/>
      <stop offset="100%" stop-color="#f5e6b8"/>
    </linearGradient>
  </defs>
  <rect width="800" height="520" rx="24" fill="url(#massageBg)"/>
  <g opacity="0.22" fill="#ffd166">
    <circle cx="620" cy="120" r="120"/>
    <circle cx="180" cy="200" r="100"/>
  </g>
  <g fill="#101110" opacity="0.45">
    <path d="M60 428c140-80 240-116 340-116s200 36 340 116v92H60z"/>
  </g>
  <g>
    <ellipse cx="240" cy="432" rx="120" ry="30" fill="#0a0a0a" opacity="0.4"/>
    <ellipse cx="520" cy="448" rx="132" ry="32" fill="#0a0a0a" opacity="0.36"/>
  </g>
  <g>
    <path d="M230 220c-42 0-74 36-74 82s32 86 74 86 76-40 76-86-34-82-76-82z" fill="#d69a5c"/>
    <path d="M188 230c-16 42-2 104 40 128s86-8 100-48c12-34-4-72-26-84-34-18-82-26-114 4z" fill="#3b3d39"/>
    <path d="M232 202c-20 0-40 12-54 32-10 16 6 34 24 26 16-6 26-16 40-16s24 10 40 16c18 8 34-10 24-26-12-20-34-32-54-32z" fill="#1c1d1c"/>
    <circle cx="204" cy="276" r="18" fill="#202220"/>
    <circle cx="260" cy="276" r="18" fill="#202220"/>
    <path d="M212 318c16 14 36 14 52 0" fill="none" stroke="#a06c38" stroke-width="8" stroke-linecap="round"/>
  </g>
  <g>
    <path d="M320 352l-46 40 70 44 68-46z" fill="#ffd166" opacity="0.7"/>
    <path d="M332 304c-24 0-36 22-30 44l34 88h104l-42-126c-6-16-32-6-32 12 0-12-16-18-34-18z" fill="#f5e6b8"/>
    <path d="M332 304c16-18 52-20 76-10l38 22 84-32c26-10 54 8 54 36v56l-116 44-78-36-58-80z" fill="#5f6f6b"/>
  </g>
  <g>
    <path d="M520 200c-34 0-62 30-62 70s28 70 62 70 60-30 60-70-26-70-60-70z" fill="#5f6f6b"/>
    <path d="M480 206c-14 46 4 104 44 122s84-10 96-56c8-32-6-64-28-74-30-14-84-20-112 8z" fill="#3c3d3b"/>
    <path d="M514 182c-20 0-40 12-52 30-10 16 6 34 24 26 18-6 28-16 42-16s24 10 40 16c18 8 34-10 24-26-12-18-34-30-58-30z" fill="#151715"/>
    <circle cx="490" cy="246" r="16" fill="#202220"/>
    <circle cx="542" cy="246" r="16" fill="#202220"/>
    <path d="M498 282c14 12 34 12 48 0" fill="none" stroke="#754a24" stroke-width="8" stroke-linecap="round"/>
  </g>
  <path d="M472 328l-64 24 48 84 136-46-28-60c-12-24-44-36-70-24l-22 10z" fill="url(#massageHighlight)"/>
</svg>
