<svg xmlns="http://www.w3.org/2000/svg" viewBox="0 0 800 520">
  <defs>
    <linearGradient id="walkBg" x1="0" y1="0" x2="1" y2="1">
      <stop offset="0%" stop-color="#202220"/>
      <stop offset="100%" stop-color="#2f312f"/>
    </linearGradient>
    <linearGradient id="walkHighlight" x1="0" y1="0" x2="1" y2="1">
      <stop offset="0%" stop-color="#ffd166"/>
      <stop offset="100%" stop-color="#f5e6b8"/>
    </linearGradient>
  </defs>
  <rect width="800" height="520" rx="24" fill="url(#walkBg)"/>
  <g opacity="0.22" fill="#ffd166">
    <circle cx="600" cy="140" r="130"/>
    <circle cx="160" cy="140" r="110"/>
  </g>
  <g fill="#0d0e0d" opacity="0.5">
    <path d="M0 360c120-90 200-130 320-130s220 40 320 130v160H0z"/>
  </g>
  <g>
    <ellipse cx="190" cy="430" rx="110" ry="28" fill="#0a0a0a" opacity="0.4"/>
    <ellipse cx="390" cy="448" rx="120" ry="30" fill="#0a0a0a" opacity="0.36"/>
    <ellipse cx="600" cy="430" rx="110" ry="26" fill="#0a0a0a" opacity="0.34"/>
  </g>
  <g>
    <path d="M160 220c-36 0-62 32-62 74s26 76 62 76 64-34 64-76-28-74-64-74z" fill="#d69a5c"/>
    <path d="M130 224c-14 42-4 100 30 120s78-6 92-44c10-32-4-66-22-76-30-16-76-22-100 0z" fill="#3b3d39"/>
    <path d="M168 198c-18 0-38 10-50 28-10 14 4 32 20 26 14-6 24-14 38-14s24 8 38 14c18 6 30-12 20-26-12-18-32-28-66-28z" fill="#1c1d1c"/>
    <circle cx="144" cy="268" r="16" fill="#202220"/>
    <circle cx="194" cy="268" r="16" fill="#202220"/>
    <path d="M150 304c12 12 30 12 42 0" fill="none" stroke="#a06c38" stroke-width="8" stroke-linecap="round"/>
  </g>
  <g>
    <path d="M320 210c-34 0-58 32-58 70s24 72 58 72 60-34 60-72-26-70-60-70z" fill="#c4874e"/>
    <path d="M290 214c-12 40-2 94 30 116s72-8 84-46c10-30-6-60-24-72-26-14-70-20-90 2z" fill="#3c3d3b"/>
    <path d="M326 190c-18 0-34 12-46 28-10 14 4 32 20 26 14-6 24-14 36-14s22 8 36 14c16 6 30-12 20-26-12-18-30-28-66-28z" fill="#151715"/>
    <circle cx="304" cy="256" r="14" fill="#202220"/>
    <circle cx="346" cy="256" r="14" fill="#202220"/>
    <path d="M310 292c10 10 24 10 34 0" fill="none" stroke="#8d5b32" stroke-width="6" stroke-linecap="round"/>
  </g>
  <g>
    <path d="M534 198c-34 0-60 32-60 72s26 74 60 74 62-34 62-74-28-72-62-72z" fill="#8d5b32"/>
    <path d="M504 202c-14 42-2 98 32 118s76-8 90-46c12-32-2-66-22-78-26-16-74-22-100 6z" fill="#3b3d39"/>
    <path d="M538 176c-18 0-38 12-50 28-10 16 6 32 20 26 16-6 24-14 36-14s22 8 36 14c16 6 32-10 22-26-12-18-32-28-64-28z" fill="#1c1d1c"/>
    <circle cx="516" cy="248" r="16" fill="#202220"/>
    <circle cx="566" cy="248" r="16" fill="#202220"/>
    <path d="M522 284c12 12 28 12 40 0" fill="none" stroke="#8d5b32" stroke-width="8" stroke-linecap="round"/>
  </g>
  <path d="M164 348l76 42 36-22c32-20 72-16 100 10l20 18 96-40c28-10 60 4 72 32l18 46-94 32-88-36-38 26-92-60-86-52z" fill="url(#walkHighlight)"/>
</svg>
