<svg xmlns="http://www.w3.org/2000/svg" viewBox="0 0 800 520">
  <defs>
    <linearGradient id="recoveryBg" x1="0" y1="0" x2="1" y2="1">
      <stop offset="0%" stop-color="#1f211f"/>
      <stop offset="100%" stop-color="#2d302d"/>
    </linearGradient>
    <linearGradient id="highlight" x1="0" y1="0" x2="1" y2="1">
      <stop offset="0%" stop-color="#ffd166"/>
      <stop offset="100%" stop-color="#f5e6b8"/>
    </linearGradient>
  </defs>
  <rect width="800" height="520" fill="url(#recoveryBg)" rx="24"/>
  <g opacity="0.18" fill="#ffd166">
    <circle cx="620" cy="140" r="120"/>
    <circle cx="200" cy="360" r="160"/>
  </g>
  <g fill="#0f100f" opacity="0.4">
    <path d="M40 420c120-90 220-130 320-130s200 46 320 130v100H40z"/>
  </g>
  <g>
    <ellipse cx="240" cy="440" rx="110" ry="28" fill="#0c0c0c" opacity="0.45"/>
    <ellipse cx="510" cy="456" rx="120" ry="32" fill="#0c0c0c" opacity="0.38"/>
  </g>
  <g fill="#d69a5c">
    <path d="M226 274c-24 10-38 38-28 62l36 90 110-30-20-78c-6-26-34-42-60-30l-38 18z"/>
    <path d="M320 318l24 108 100 12-18-124z" fill="#5f6f6b"/>
  </g>
  <g>
    <path d="M240 180c-40 0-72 34-72 76s32 78 72 78 72-36 72-78-32-76-72-76z" fill="#5f6f6b"/>
    <path d="M204 186c-16 44-4 108 36 132s84-10 100-54c12-34-4-70-28-82-30-16-84-22-108 4z" fill="#3b3d39"/>
    <path d="M248 160c-20 0-40 12-52 30-10 14 2 36 18 30 20-8 30-18 46-18s26 10 46 18c16 6 30-14 18-30-12-18-30-30-54-30z" fill="#1d1f1d"/>
    <circle cx="214" cy="234" r="16" fill="#202220"/>
    <circle cx="268" cy="234" r="16" fill="#202220"/>
    <path d="M222 272c14 12 34 12 48 0" fill="none" stroke="#a06c38" stroke-width="8" stroke-linecap="round"/>
  </g>
  <g>
    <path d="M480 208c-30 0-54 28-54 64s24 64 54 64 54-28 54-64-24-64-54-64z" fill="#3c4541"/>
    <path d="M444 214c-12 44 6 96 38 112s68-6 80-46c10-32-6-64-26-74-28-12-70-18-92 8z" fill="#2a2c2a"/>
    <path d="M474 188c-18 0-38 10-50 26-10 16 6 32 22 26 16-6 26-16 40-16s24 10 40 16c16 6 34-10 22-26-10-16-32-26-50-26z" fill="#151715"/>
    <circle cx="454" cy="256" r="14" fill="#202220"/>
    <circle cx="502" cy="256" r="14" fill="#202220"/>
    <path d="M460 292c10 10 26 10 36 0" fill="none" stroke="#754a24" stroke-width="6" stroke-linecap="round"/>
  </g>
  <path d="M320 318l70-26c38-14 82 4 100 42l32 70-98 38-40-84-64-40z" fill="url(#highlight)"/>
  <path d="M226 274l72 44 42-16c28-10 58 2 74 26l54 78-34 16-48-70-68-38-96-40z" fill="#f5e6b8" opacity="0.6"/>
</svg>
