<svg xmlns="http://www.w3.org/2000/svg" viewBox="0 0 1440 900">
  <defs>
    <linearGradient id="bgGradient" x1="0" x2="1" y1="0" y2="1">
      <stop offset="0%" stop-color="#1b1d1b"/>
      <stop offset="50%" stop-color="#242624"/>
      <stop offset="100%" stop-color="#2f312f"/>
    </linearGradient>
    <linearGradient id="sunGlow" x1="0.2" y1="0" x2="0.8" y2="1">
      <stop offset="0%" stop-color="rgba(255,209,102,0.6)"/>
      <stop offset="100%" stop-color="rgba(255,209,102,0)"/>
    </linearGradient>
    <linearGradient id="floorGradient" x1="0" y1="0" x2="0" y2="1">
      <stop offset="0%" stop-color="#161716"/>
      <stop offset="100%" stop-color="#0c0d0c"/>
    </linearGradient>
    <linearGradient id="shirtGradient" x1="0" y1="0" x2="1" y2="1">
      <stop offset="0%" stop-color="#ffd166"/>
      <stop offset="100%" stop-color="#f5e6b8"/>
    </linearGradient>
    <linearGradient id="patientTop" x1="0" y1="0" x2="1" y2="1">
      <stop offset="0%" stop-color="#5f6f6b"/>
      <stop offset="100%" stop-color="#3c4541"/>
    </linearGradient>
    <filter id="softShadow" x="-0.2" y="-0.2" width="1.4" height="1.4">
      <feDropShadow dx="0" dy="14" stdDeviation="24" flood-color="#000" flood-opacity="0.35"/>
    </filter>
  </defs>
  <rect width="1440" height="900" fill="url(#bgGradient)"/>
  <ellipse cx="360" cy="220" rx="280" ry="200" fill="url(#sunGlow)" opacity="0.6"/>
  <rect y="620" width="1440" height="280" fill="url(#floorGradient)"/>
  <g opacity="0.25" fill="#343634">
    <path d="M120 520c70-90 150-140 260-140s210 48 310 48 204-38 290-32 152 52 220 152l-1080 0z"/>
    <path d="M80 610c80-80 170-110 250-110s148 22 230 22 182-30 260-24 140 42 210 122H80z"/>
  </g>
  <g filter="url(#softShadow)">
    <path d="M510 640c0-92 42-170 126-170h206c80 0 126 74 126 170 0 114-78 178-198 178H708c-112 0-198-68-198-178z" fill="#2d2f2d"/>
  </g>
  <g>
    <ellipse cx="820" cy="778" rx="120" ry="26" fill="#151615" opacity="0.5"/>
    <ellipse cx="590" cy="790" rx="110" ry="24" fill="#101110" opacity="0.45"/>
  </g>
  <g id="therapist">
    <path d="M640 320c-24 0-44 20-44 44s20 44 44 44 44-20 44-44-20-44-44-44z" fill="#d69a5c"/>
    <path d="M620 396c-58 22-82 86-70 176l30 210h140l18-154-44-32-12-104-62-96z" fill="url(#shirtGradient)"/>
    <path d="M646 308c-20 0-36 10-46 26-8 14-6 34 12 40 16 6 26-6 38-16 14-12 34-16 56-12 14 4 28 0 32-10 6-12-6-26-20-32-26-10-46-12-72 4z" fill="#3c3d3b"/>
    <path d="M614 680l-26 146h86l6-146h-66z" fill="#2a2c2a"/>
    <path d="M720 680l-6 146h88l24-104-70-42-36 0z" fill="#242624"/>
    <path d="M588 826l-6 30h114l2-30H588z" fill="#0f100f"/>
    <path d="M798 826l-12 32h116l10-32h-114z" fill="#0d0d0d"/>
  </g>
  <g id="patient">
    <path d="M878 348c-28 0-52 24-52 54s24 54 52 54 52-24 52-54-22-54-52-54z" fill="#b57640"/>
    <path d="M844 426c-70 16-108 90-104 198l12 144h244l-14-170-34-30-12-98-92-44z" fill="url(#patientTop)"/>
    <path d="M870 320c-24 0-42 8-58 26-12 14-8 34 10 40 18 8 34-12 56-18 26-6 52 10 74 6 18-2 24-22 14-36-22-28-62-28-96-18z" fill="#2f302f"/>
    <path d="M860 662l-6 108 100 4-8-112H860z" fill="#202220"/>
    <path d="M960 664l10 148h110l-48-138-72-10z" fill="#191a19"/>
    <path d="M852 766l-12 58h124l4-56-116-2z" fill="#0c0d0c"/>
    <path d="M978 812l-4 46h138l-34-72-100 26z" fill="#0a0a0a"/>
  </g>
  <g fill="#ffd166" opacity="0.24">
    <circle cx="220" cy="720" r="90"/>
    <circle cx="1180" cy="280" r="140"/>
    <circle cx="1280" cy="620" r="70"/>
  </g>
  <g fill="#3a3c3a" opacity="0.5">
    <rect x="160" y="280" width="120" height="340" rx="18"/>
    <rect x="320" y="260" width="140" height="380" rx="22"/>
    <rect x="1240" y="300" width="120" height="320" rx="18"/>
  </g>
</svg>
