<svg width="400" height="300" viewBox="0 0 400 300" xmlns="http://www.w3.org/2000/svg" role="img" aria-labelledby="title desc">
  <title id="title">Ngā ringaringa e mirimiri ana i te pakihiwi</title>
  <desc id="desc">Stylised illustration of brown Māori hands providing a calming shoulder massage.</desc>
  <defs>
    <linearGradient id="bgGradient" x1="0" y1="0" x2="0" y2="1">
      <stop offset="0%" stop-color="#f7f2ec" />
      <stop offset="100%" stop-color="#e5d9c8" />
    </linearGradient>
    <linearGradient id="koru" x1="0" y1="0" x2="1" y2="1">
      <stop offset="0%" stop-color="#7bc6b6" />
      <stop offset="100%" stop-color="#2f7a6a" />
    </linearGradient>
    <clipPath id="roundedFrame">
      <rect x="20" y="20" width="360" height="260" rx="28" ry="28" />
    </clipPath>
  </defs>
  <rect width="400" height="300" fill="url(#bgGradient)" />
  <g clip-path="url(#roundedFrame)">
    <rect x="20" y="20" width="360" height="260" fill="url(#bgGradient)" />
    <path d="M 260 200 C 220 210 190 210 150 205 C 120 200 110 170 120 150 C 140 110 200 70 260 90 C 320 110 340 170 320 200 C 310 215 290 205 260 200 Z" fill="#f2c29d" />
    <path d="M 140 220 C 150 235 175 240 200 232 C 228 223 252 226 280 236 C 300 243 320 244 330 230 C 340 214 335 194 320 182 C 298 164 266 162 240 170 C 220 176 180 188 160 192 C 142 196 134 206 140 220 Z" fill="#8c5333" />
    <path d="M 236 178 C 262 168 296 170 320 188 C 326 192 330 198 332 204 C 314 202 296 212 280 216 C 268 219 252 220 240 218 C 226 216 220 204 220 194 C 220 184 228 181 236 178 Z" fill="#9a5d37" />
    <path d="M 70 195 C 90 190 110 188 136 192 C 150 194 164 198 178 204 C 196 212 214 210 230 202 C 254 190 278 180 308 182 C 322 182 332 186 338 194 C 344 202 346 212 344 224 C 330 248 300 250 274 244 C 250 238 224 230 198 232 C 172 234 140 244 116 244 C 94 244 78 234 70 220 C 66 212 64 202 70 195 Z" fill="#b0714c" />
    <ellipse cx="186" cy="126" rx="52" ry="38" fill="#442518" opacity="0.15" />
    <path d="M 188 120 C 194 118 198 114 206 112 C 214 110 224 110 236 114 C 248 118 258 124 266 134 C 274 144 278 156 276 168 C 274 180 268 188 258 192 C 246 198 232 198 220 194 C 208 190 198 182 190 172 C 180 160 176 142 180 130 C 182 124 184 122 188 120 Z" fill="#d5976f" />
    <g opacity="0.5">
      <path d="M 40 240 C 90 260 140 270 190 268" fill="none" stroke="url(#koru)" stroke-width="16" stroke-linecap="round" />
      <path d="M 120 80 C 150 60 190 52 230 60" fill="none" stroke="url(#koru)" stroke-width="12" stroke-linecap="round" />
      <path d="M 286 52 Q 320 66 338 96" fill="none" stroke="url(#koru)" stroke-width="10" stroke-linecap="round" />
    </g>
  </g>
</svg>
