<svg xmlns="http://www.w3.org/2000/svg" width="160" height="160" viewBox="0 0 160 160">
  <defs>
    <pattern id="zigzag" x="0" y="0" width="160" height="160" patternUnits="userSpaceOnUse">
      <rect width="160" height="160" fill="none" />
      <g stroke="#F5E6B8" stroke-width="4" fill="none" stroke-linecap="round" stroke-linejoin="round" opacity="0.22">
        <polyline points="0 40 20 20 40 40 60 20 80 40 100 20 120 40 140 20 160 40" />
        <polyline points="0 80 20 60 40 80 60 60 80 80 100 60 120 80 140 60 160 80" />
        <polyline points="0 120 20 100 40 120 60 100 80 120 100 100 120 120 140 100 160 120" />
        <polyline points="0 160 20 140 40 160 60 140 80 160 100 140 120 160 140 140 160 160" />
      </g>
    </pattern>
  </defs>
  <rect width="160" height="160" fill="url(#zigzag)" />
</svg>
